# xmcd
#
# Track frame offsets: 
#        150
#        12835
#        32332
#        53599
#        71438
#        93757
#        114627
#        138165
#        158833
#        175614
#        192604
#        215626
#        237485
#        244694
#        257817
#        279725
#        297899
#
# Disc length: 4241 seconds
#
# Revision: 0
# Processed by: cddbd v1.5.2PL0 Copyright (c) Steve Scherf et al.
# Submitted via: ExactAudioCopy v0.99pb1
#
DISCID=ed108f11
DTITLE=Billy's Band - Весенние обострения
DYEAR=2007
DGENRE=Blues
TTITLE0=01.Счастье есть
TTITLE1=02.Время которое нужно убить
TTITLE2=03.Ни шагу из дома
TTITLE3=04.Снежная королева
TTITLE4=05.Передай привет (песня о погибшем брате)
TTITLE5=06.Невиновен
TTITLE6=07.Последний день лета
TTITLE7=08.Я не стеклянный
TTITLE8=09.Ляг на землю
TTITLE9=10.Встречай меня Москва!
TTITLE10=11.Купчино - столица мира (прощальная)
TTITLE11=12.Простим друг друга
TTITLE12=13.29 Марта (Инструментал)
TTITLE13=14.Счастье есть II (чернозём)
TTITLE14=15.Весенние обострения
TTITLE15=16.Бонус: Голос брехуна (совместно с КАСТА)
TTITLE16=17.Бонус: Время которое нужно убить (ремикс Влади)
EXTD=
EXTT0=
EXTT1=
EXTT2=
EXTT3=
EXTT4=
EXTT5=
EXTT6=
EXTT7=
EXTT8=
EXTT9=
EXTT10=
EXTT11=
EXTT12=
EXTT13=
EXTT14=
EXTT15=
EXTT16=
PLAYORDER=
